<?xml version="1.0" encoding="UTF-8"?>
<svg id="_레이어_2" data-name="레이어 2" xmlns="http://www.w3.org/2000/svg" viewBox="0 0 243.32 304.98">
  <defs>
    <style>
      .cls-1 {
        fill: #2463eb;
      }
    </style>
  </defs>
  <g id="_레이어_1-2" data-name="레이어 1">
    <g>
      <path class="cls-1" d="M90.87,51.7h-10.93c-1.39,0-2.52,1.13-2.52,2.52v14.68h-14.68c-1.39,0-2.52,1.13-2.52,2.52v10.93c0,1.39,1.13,2.52,2.52,2.52h14.68v13.45c0,1.39,1.13,2.52,2.52,2.52h10.93c1.39,0,2.52-1.13,2.52-2.52v-13.45h14.68c1.39,0,2.52-1.13,2.52-2.52v-10.93c0-1.39-1.13-2.52-2.52-2.52h-14.68v-14.68c0-1.39-1.13-2.52-2.52-2.52Z"/>
      <path class="cls-1" d="M123.5,0C57.7,0,3.95,52.12,3.69,116.18l12.29.05c.24-57.32,48.47-103.95,107.52-103.95,9.11,0,17.96,1.11,26.42,3.19v109.95h-37.09c-4.22,0-8.27,1.56-11.41,4.38l-18.25,16.43-18.25-16.43c-3.14-2.82-7.19-4.38-11.41-4.38H18.33c-1.7-2.93-4.87-4.92-8.5-4.92-5.42,0-9.83,4.41-9.83,9.83s4.41,9.83,9.83,9.83c3.63,0,6.8-1.98,8.5-4.92h35.18c1.79,0,3.5.66,4.83,1.86l24.83,22.35,24.83-22.35c1.33-1.2,3.04-1.85,4.83-1.85h118.2v53.05c0,25.17-9.23,48.3-24.58,66.34v-27.23c0-2.71-2.2-4.92-4.92-4.92s-4.92,2.2-4.92,4.92v37.34c-1.6,1.44-3.23,2.84-4.92,4.18v-53.81c0-2.71-2.2-4.92-4.92-4.92s-4.92,2.2-4.92,4.92v60.79c-2,1.26-4.05,2.46-6.14,3.59v-82.81c0-2.71-2.2-4.92-4.92-4.92s-4.92,2.2-4.92,4.92v87.52c-1.62.68-3.26,1.32-4.92,1.92v-109.1c0-2.71-2.2-4.92-4.92-4.92s-4.92,2.2-4.92,4.92v112.14c-8.83,2.28-18.09,3.5-27.65,3.5-42.35,0-79.05-23.89-96.57-58.51,13.95-.03,27.63,1.41,40.73,4.28,15.92,3.49,27.19,8.22,37.13,12.39,11.07,4.64,21.74,10,31.71,15.94,1.01.6,2.15.9,3.3.9s2.2-.28,3.19-.84c2-1.14,3.24-3.27,3.24-5.57v-69.49c0-2.71-2.2-4.92-4.92-4.92s-4.92,2.2-4.92,4.92v63.58c-8.86-4.99-18.19-9.55-27.81-13.58-9.81-4.12-22.03-9.24-38.82-12.92-15.15-3.32-31-4.8-47.16-4.44-4.29-11.26-6.64-23.42-6.64-36.11v-44.45H3.69v44.45c0,64.33,53.75,116.66,119.81,116.66s119.81-52.33,119.81-116.66v-71.65C243.32,52.33,189.57,0,123.5,0ZM162.21,125.43V19.29c40.22,15.12,68.82,53.06,68.82,97.37v8.77h-68.82Z"/>
    </g>
  </g>
</svg>